<?xml version="1.0"?>
<svg xmlns="http://www.w3.org/2000/svg" height="512px" viewBox="0 -8 512 511" width="512px" class=""><g><path d="m481.660156 246.054688h-398.332031v-37.605469c0-11.734375-9.546875-21.277344-21.277344-21.277344h-.695312v-126.9375c0-21.910156 17.824219-39.734375 39.734375-39.734375s39.734375 17.824219 39.734375 39.734375v22.136719c-19.988281 3.074218-36.050781 19.125-38.625 39.730468l-2.0625 16.511719c-.515625 4.09375.757812 8.214844 3.488281 11.3125 2.730469 3.09375 6.664062 4.867188 10.789062 4.867188h66.785157c4.125 0 8.058593-1.773438 10.789062-4.867188s4.003907-7.214843 3.492188-11.3125l-2.0625-16.511719c-2.3125-18.484374-15.472657-33.304687-32.59375-38.378906v-23.488281c0-32.9375-26.796875-59.734375-59.734375-59.734375s-59.734375 26.796875-59.734375 59.734375v126.9375c-11.613281.140625-21.019531 9.632813-21.019531 21.277344v39.296875c-11.828126 4.140625-20.335938 15.417968-20.335938 28.644531 0 16.726563 13.609375 30.335937 30.339844 30.335937h1.015625v47.820313c0 45.648437 33.109375 83.710937 76.570312 91.4375v28.726563h-48.292969c-5.523437 0-10 4.476562-10 10 0 5.523437 4.476563 10 10 10h401.5625c5.519532 0 10-4.476563 10-10 0-5.523438-4.480468-10-10-10h-57.121093v-28.726563c43.460937-7.726563 76.570312-45.789063 76.570312-91.4375v-47.820313h1.015625c16.730469 0 30.339844-13.609374 30.339844-30.335937s-13.609375-30.335937-30.339844-30.335937zm-308.089844-121.472657 1.277344 10.210938h-54.078125l1.273438-10.210938c1.621093-12.964843 12.695312-22.742187 25.765625-22.742187 13.066406 0 24.140625 9.777344 25.761718 22.742187zm-133.230468 83.867188c0-.707031.570312-1.277344 1.277344-1.277344h20.433593c.703125 0 1.277344.570313 1.277344 1.277344v37.601562h-22.988281zm87.585937 266.261719v-27.292969h32.015625l-13.753906 27.292969zm201.738281-27.292969 13.753907 27.296875h-174.835938l13.753907-27.296875zm36.148438 27.292969-13.75-27.292969h32.011719v27.292969zm115.847656-187.984376h-76.96875c-5.519531 0-10 4.476563-10 10 0 5.523438 4.480469 10 10 10h55.953125v47.820313c0 40.179687-32.691406 72.871094-72.875 72.871094h-263.539062c-40.183594 0-72.875-32.691407-72.875-72.871094v-47.820313h273.335937c5.523438 0 10-4.476562 10-10 0-5.523437-4.476562-10-10-10h-294.351562c-5.703125 0-10.339844-4.636718-10.339844-10.335937s4.636719-10.335937 10.339844-10.335937h451.320312c5.703125 0 10.339844 4.636718 10.339844 10.335937s-4.636719 10.335937-10.339844 10.335937zm0 0" data-original="#000000" class="active-path" data-old_color="#000000" fill="#FFFFFF"/><path d="m328.488281 216.414062c17.265625 0 31.3125-14.042968 31.3125-31.308593s-14.046875-31.308594-31.3125-31.308594-31.308593 14.042969-31.308593 31.308594 14.046874 31.308593 31.308593 31.308593zm0-42.617187c6.234375 0 11.3125 5.074219 11.3125 11.308594 0 6.238281-5.074219 11.308593-11.3125 11.308593s-11.308593-5.070312-11.308593-11.308593c0-6.234375 5.074218-11.308594 11.308593-11.308594zm0 0" data-original="#000000" class="active-path" data-old_color="#000000" fill="#FFFFFF"/><path d="m418.921875 153.535156c-21.820313 0-39.574219 17.753906-39.574219 39.578125 0 21.820313 17.753906 39.574219 39.574219 39.574219 21.824219 0 39.578125-17.753906 39.578125-39.574219 0-21.824219-17.753906-39.578125-39.578125-39.578125zm0 59.152344c-10.792969 0-19.574219-8.78125-19.574219-19.574219 0-10.796875 8.78125-19.578125 19.574219-19.578125 10.796875 0 19.578125 8.78125 19.578125 19.578125 0 10.792969-8.78125 19.574219-19.578125 19.574219zm0 0" data-original="#000000" class="active-path" data-old_color="#000000" fill="#FFFFFF"/><path d="m398.195312 136.03125c28.289063 0 51.304688-23.015625 51.304688-51.304688 0-28.289062-23.015625-51.304687-51.304688-51.304687-28.289062 0-51.304687 23.015625-51.304687 51.304687 0 28.289063 23.015625 51.304688 51.304687 51.304688zm0-82.609375c17.261719 0 31.304688 14.042969 31.304688 31.304687 0 17.261719-14.042969 31.304688-31.304688 31.304688-17.261718 0-31.304687-14.042969-31.304687-31.304688 0-17.261718 14.046875-31.304687 31.304687-31.304687zm0 0" data-original="#000000" class="active-path" data-old_color="#000000" fill="#FFFFFF"/><path d="m364.691406 286.726562h-.023437c-5.523438 0-9.988281 4.476563-9.988281 10 0 5.523438 4.492187 10 10.011718 10 5.523438 0 10-4.476562 10-10 0-5.523437-4.476562-10-10-10zm0 0" data-original="#000000" class="active-path" data-old_color="#000000" fill="#FFFFFF"/></g> </svg>
