<svg width="75" height="75" viewBox="0 0 75 75" fill="none" xmlns="http://www.w3.org/2000/svg">
<path d="M72.0703 34.5703H40.4297V2.92969C40.4297 1.31162 39.1181 0 37.5 0C35.8819 0 34.5703 1.31162 34.5703 2.92969V34.5703H2.92969C1.31162 34.5703 0 35.8819 0 37.5C0 39.1181 1.31162 40.4297 2.92969 40.4297H34.5703V72.0703C34.5703 73.6884 35.8819 75 37.5 75C39.1181 75 40.4297 73.6884 40.4297 72.0703V40.4297H72.0703C73.6884 40.4297 75 39.1181 75 37.5C75 35.8819 73.6884 34.5703 72.0703 34.5703Z" fill="white"/>
</svg>
