<svg width="75" height="69" viewBox="0 0 75 69" fill="none" xmlns="http://www.w3.org/2000/svg">
<g clip-path="url(#clip0)">
<path d="M64.9201 59.1998L60.931 19.085C60.8185 17.9797 59.806 17.1358 58.5919 17.1358H51.5607V12.8518C51.5607 9.40753 50.1029 6.17316 47.4545 3.75273C44.806 1.33231 41.267 0 37.4982 0C29.7451 0 23.4357 5.76618 23.4357 12.8518V17.1358H16.4045C15.1904 17.1358 14.1779 17.9797 14.0701 19.085L10.081 59.1998C9.84196 61.5902 10.7232 63.9806 12.4951 65.7542C14.267 67.5277 16.7888 68.543 19.4185 68.543H55.5826C58.2123 68.543 60.7341 67.5277 62.506 65.7542C64.2779 63.9806 65.1544 61.5902 64.9201 59.1998ZM28.1232 12.8518C28.1232 8.12663 32.3279 4.28394 37.4982 4.28394C40.0154 4.28394 42.3732 5.17072 44.1404 6.78148C45.9076 8.39224 46.8732 10.5513 46.8732 12.8518V17.1358H28.1232V12.8518ZM59.042 62.8668C58.1419 63.7622 56.9138 64.2591 55.5779 64.2591H19.4185C18.0873 64.2591 16.8545 63.7622 15.9591 62.8625C15.0591 61.9629 14.6326 60.802 14.7545 59.5853L18.5466 21.4197H23.4357V27.8456C23.4357 29.028 24.4857 29.9876 25.7795 29.9876C27.0732 29.9876 28.1232 29.028 28.1232 27.8456V21.4197H46.8732V27.8456C46.8732 29.028 47.9232 29.9876 49.217 29.9876C50.5107 29.9876 51.5607 29.028 51.5607 27.8456V21.4197H56.4498L60.2466 59.5896C60.3685 60.802 59.9419 61.9672 59.042 62.8668Z" fill="white"/>
</g>
<defs>
<clipPath id="clip0">
<rect width="75" height="68.543" fill="white"/>
</clipPath>
</defs>
</svg>
