<svg width="70" height="70" viewBox="0 0 70 70" fill="none" xmlns="http://www.w3.org/2000/svg">
<path d="M69.1446 65.0205L49.2386 45.1145C53.0944 40.3517 55.416 34.2996 55.416 27.7081C55.416 12.4307 42.9853 0 27.7079 0C12.4306 0 0 12.4306 0 27.7079C0 42.9853 12.4307 55.416 27.7081 55.416C34.2996 55.416 40.3517 53.0944 45.1145 49.2386L65.0205 69.1446C65.5893 69.7134 66.3359 69.9992 67.0826 69.9992C67.8294 69.9992 68.576 69.7134 69.1447 69.1446C70.2851 68.0043 70.2851 66.1609 69.1446 65.0205ZM27.7081 49.5827C15.6448 49.5827 5.83331 39.7712 5.83331 27.7079C5.83331 15.6447 15.6448 5.83318 27.7081 5.83318C39.7713 5.83318 49.5828 15.6447 49.5828 27.7079C49.5828 39.7712 39.7712 49.5827 27.7081 49.5827Z" fill="white"/>
</svg>
