<svg width="75" height="79" viewBox="0 0 75 79" fill="none" xmlns="http://www.w3.org/2000/svg">
<path d="M64.0165 11.5396C56.9338 4.09822 47.5164 0 37.5 0C27.483 0 18.0662 4.09822 10.9835 11.5396C3.90072 18.981 0 28.8745 0 39.3987C0 49.9223 3.90072 59.8165 10.9835 67.2579C18.0662 74.6992 27.483 78.7975 37.5 78.7975C47.5164 78.7975 56.9338 74.6992 64.0165 67.2579C71.0993 59.8165 75 49.9223 75 39.3987C75 28.8745 71.0993 18.981 64.0165 11.5396ZM18.7998 68.0839C20.3682 58.5961 28.1937 51.5978 37.5 51.5978C46.8069 51.5978 54.6318 58.5961 56.2002 68.0839C50.8759 71.9272 44.434 74.1804 37.5 74.1804C30.566 74.1804 24.1241 71.9272 18.7998 68.0839ZM25.5764 34.4535C25.5764 27.5453 30.9254 21.9261 37.5 21.9261C44.0746 21.9261 49.4236 27.5459 49.4236 34.4535C49.4236 41.361 44.0746 46.9808 37.5 46.9808C30.9254 46.9808 25.5764 41.361 25.5764 34.4535ZM60.0065 64.8814C58.8238 60.4646 56.4749 56.4571 53.1824 53.3268C51.1625 51.406 48.8634 49.8905 46.3915 48.8222C50.8593 45.7604 53.8187 40.4634 53.8187 34.4535C53.8187 24.9999 46.4979 17.3091 37.5 17.3091C28.5021 17.3091 21.1819 24.9999 21.1819 34.4535C21.1819 40.4634 24.1413 45.7604 28.6085 48.8222C26.1372 49.8905 23.8375 51.4054 21.8176 53.3262C18.5257 56.4565 16.1762 60.464 14.9935 64.8808C8.47893 58.5246 4.39453 49.454 4.39453 39.3987C4.39453 20.22 19.2455 4.61704 37.5 4.61704C55.7545 4.61704 70.6055 20.22 70.6055 39.3987C70.6055 49.4546 66.5211 58.5252 60.0065 64.8814Z" fill="white"/>
</svg>
