<svg width="75" height="68" viewBox="0 0 75 68" fill="none" xmlns="http://www.w3.org/2000/svg">
<path d="M37.5 17.2283C32.4975 17.2283 28.4325 20.9375 28.4325 25.5047C28.4325 30.0786 32.49 33.781 37.5 33.781C42.51 33.781 46.5675 30.0786 46.5675 25.5047C46.56 20.9375 42.5025 17.2283 37.5 17.2283ZM37.5 29.6462C34.995 29.6462 32.97 27.795 32.97 25.5114C32.97 23.2278 35.0025 21.3766 37.5 21.3766C40.005 21.3766 42.03 23.2278 42.03 25.5114C42.03 27.7882 40.005 29.6462 37.5 29.6462ZM37.5 0.675629C22.485 0.675629 10.305 11.7896 10.305 25.5047C10.305 41.8749 37.5 66.8864 37.5 66.8864C37.5 66.8864 64.695 41.5776 64.695 25.5047C64.695 11.7896 52.515 0.675629 37.5 0.675629ZM14.8425 25.7614C14.8425 14.1948 24.99 4.81042 37.5 4.81042C50.0175 4.81042 60.1575 14.188 60.1575 25.7614C60.1575 39.3008 37.5 60.6774 37.5 60.6774C37.5 60.6774 14.8425 39.4427 14.8425 25.7614Z" fill="white"/>
</svg>
