<?xml version="1.0"?>
<svg xmlns="http://www.w3.org/2000/svg" height="512px" viewBox="0 0 512 512" width="512px"><g><path d="m497 482h-381.585938c-47.097656 0-85.414062-38.316406-85.414062-85.414062 0-47.101563 38.316406-85.417969 85.414062-85.417969h281.167969c63.640625 0 115.417969-51.777344 115.417969-115.417969s-51.777344-115.414062-115.417969-115.414062h-126.765625c-7.214844-45.46875-46.683594-80.335938-94.152344-80.335938h-80.332031c-8.285156 0-15 6.714844-15 15v25.167969h-65.332031c-8.285156 0-15 6.714843-15 15 0 8.28125 6.714844 15 15 15h65.332031v50.332031h-65.332031c-8.285156 0-15 6.714844-15 15s6.714844 15 15 15h65.332031v25.167969c0 8.28125 6.714844 15 15 15h80.332031c47.46875 0 86.9375-34.867188 94.152344-80.332031h126.765625c47.101563 0 85.417969 38.316406 85.417969 85.414062s-38.316406 85.417969-85.417969 85.417969h-281.167969c-63.640624 0-115.414062 51.773437-115.414062 115.417969 0 63.640624 51.773438 115.414062 115.414062 115.414062h381.585938c8.285156 0 15-6.714844 15-15s-6.714844-15-15-15zm-321.335938-321.332031h-65.332031v-130.667969h65.332031c36.027344 0 65.335938 29.308594 65.335938 65.335938 0 36.023437-29.308594 65.332031-65.335938 65.332031zm0 0" data-original="#000000" class="active-path" data-old_color="#000000" fill="#FFFFFF"/></g> </svg>
